<svg width="350" height="611" viewBox="0 0 350 611" fill="none" xmlns="http://www.w3.org/2000/svg">
<path opacity="0.8" d="M118.673 141.95C199.365 182.345 259.823 200.208 278.069 252.582C298.432 311.054 259.058 379.754 206.544 450.067C161.738 519.336 79.8596 575.546 54.9531 585.528C-17.0429 614.413 -59.1068 509.798 -95.9769 376.368C-121.354 284.732 -187.006 128.632 -108.665 92.6506C-39.3578 60.8033 -22.0109 85.231 118.673 141.95Z" fill="white"/>
<path d="M162.298 156.715C228.818 217.691 282.058 251.449 285.241 306.819C288.788 368.634 232.083 423.901 162.298 477.117C100.213 531.441 6.0589 563.041 -20.6302 565.809C-97.7876 573.843 -109.548 461.702 -108.411 323.276C-107.684 228.194 -128.008 60.0738 -42.8033 46.9575C32.5808 35.3388 42.5633 63.5873 162.298 156.715Z" fill="url(#paint0_linear)"/>
<path opacity="0.8" d="M153.289 573.077C155.575 584.521 189.278 595.128 203.957 580.06C217.59 566.041 209.139 535.717 196.093 532.257C183.529 528.935 167.085 550.517 159.315 560.683C153.013 568.956 152.965 571.587 153.289 573.077Z" fill="white"/>
<path opacity="0.8" d="M220.152 484.521C218.296 480.137 226.565 468.526 234.602 470.071C242.072 471.515 246.233 483.705 242.887 487.983C239.662 492.099 229.599 488.791 224.851 487.238C220.993 485.969 220.385 485.098 220.152 484.521Z" fill="white"/>
<path d="M235.144 470.822C240.848 471.242 246.627 480.083 243.688 486.726C240.799 493.319 230.501 495.319 226.155 491.22C222.278 487.54 223.858 479.737 227.39 475.316C228.13 474.378 231.217 470.55 235.144 470.822Z" fill="url(#paint1_linear)"/>
<path d="M153.649 565.244C155.934 576.688 189.638 587.295 204.317 572.227C217.95 558.207 209.499 527.883 196.452 524.423C183.888 521.102 167.445 542.683 159.675 552.85C153.373 561.123 153.325 563.754 153.649 565.244Z" fill="url(#paint2_linear)"/>
<defs>
<linearGradient id="paint0_linear" x1="126.952" y1="102.173" x2="126.952" y2="608.634" gradientUnits="userSpaceOnUse">
<stop stop-color="#A88EF2"/>
<stop offset="1" stop-color="#8EEAD9"/>
</linearGradient>
<linearGradient id="paint1_linear" x1="224.096" y1="498.195" x2="249.107" y2="467.818" gradientUnits="userSpaceOnUse">
<stop stop-color="#A88EF2"/>
<stop offset="1" stop-color="#8EEAD9"/>
</linearGradient>
<linearGradient id="paint2_linear" x1="156.756" y1="547.634" x2="224.822" y2="564.538" gradientUnits="userSpaceOnUse">
<stop stop-color="#8EEAD9"/>
<stop offset="1" stop-color="#A88EF2"/>
</linearGradient>
</defs>
</svg>

